<svg width="24" height="24" viewBox="0 0 24 24" fill="none" xmlns="http://www.w3.org/2000/svg">
<g clip-path="url(#clip0_437_1408)">
<path d="M7 20.001C8.10441 20.001 8.99974 20.8957 9 22C9 23.1046 8.10457 24 7 24C5.89549 23.9999 5 23.1045 5 22C5.00026 20.8957 5.89565 20.001 7 20.001ZM17 20.001C18.1044 20.001 18.9997 20.8957 19 22C19 23.1046 18.1046 24 17 24C15.8954 24 15 23.1046 15 22C15.0003 20.8957 15.8956 20.001 17 20.001ZM1.22168 0C1.95631 0.000341793 2.66595 0.270535 3.21484 0.758789C3.76354 1.24702 4.11426 1.91999 4.2002 2.64941L4.24219 3H20.4102C20.8495 2.99949 21.2837 3.09611 21.6816 3.28223C22.0796 3.46836 22.4317 3.73966 22.7129 4.07715C22.9946 4.41377 23.1992 4.80807 23.3115 5.23242C23.4239 5.65685 23.4416 6.10121 23.3633 6.5332L22.5781 10.8867C22.3702 12.0404 21.7637 13.0851 20.8643 13.8369C19.9648 14.5887 18.8294 15 17.6572 15H5.7373C5.94363 15.5835 6.32524 16.0892 6.83008 16.4473C7.33481 16.8052 7.9379 16.9982 8.55664 17H19C19.2652 17 19.5195 17.1054 19.707 17.293C19.8946 17.4805 20 17.7348 20 18C20 18.2652 19.8946 18.5195 19.707 18.707C19.5195 18.8946 19.2652 19 19 19H8.55664C7.33181 18.9999 6.14966 18.5502 5.23438 17.7363C4.31894 16.9221 3.73367 15.7998 3.59082 14.583L2.21484 2.88281C2.18616 2.63977 2.06953 2.41562 1.88672 2.25293C1.70368 2.09017 1.46661 2.00003 1.22168 2H1C0.734784 2 0.480505 1.89457 0.292969 1.70703C0.105432 1.51949 0 1.26522 0 1C0 0.734784 0.105432 0.480505 0.292969 0.292969C0.480505 0.105432 0.734784 0 1 0H1.22168ZM5.41895 13H17.6572C18.3613 13.001 19.0434 12.7539 19.584 12.3027C20.1244 11.8516 20.4894 11.225 20.6143 10.5322L21.4004 6.17773C21.4265 6.03339 21.4205 5.88493 21.3828 5.74316C21.3451 5.6012 21.2762 5.46891 21.1816 5.35645C21.0872 5.24405 20.9692 5.15342 20.8359 5.0918C20.7026 5.03018 20.557 4.99915 20.4102 5H4.47754L5.41895 13Z" fill="#1E0C03"/>
</g>
<defs>
<clipPath id="clip0_437_1408">
<rect width="24" height="24" fill="white"/>
</clipPath>
</defs>
</svg>
