<svg width="140" height="27" viewBox="0 0 140 27" fill="none" xmlns="http://www.w3.org/2000/svg">
<g clip-path="url(#clip0_147_1503)">
<path d="M8.869 26.5263H3.59366V13.4799H0V9.23224H3.59352V6.20974C3.59352 2.62808 5.18294 0.0593262 10.444 0.0593262C11.5567 0.0593262 13.3036 0.281826 13.3036 0.281826V4.22599H11.4688C9.59924 4.22599 8.86928 4.79016 8.86928 6.34988V9.23224H13.2336L12.845 13.4799H8.86914L8.869 26.5263ZM20.9734 8.8928C20.8965 8.8928 20.8174 8.89558 20.7392 8.89752C15.8476 8.89752 13.6095 12.5478 13.6095 17.7295C13.6095 24.257 16.5126 26.8695 20.7774 26.8695C23.2175 26.8695 24.8206 25.8506 25.795 23.9492V26.5281H30.8126V9.23405H25.795V11.8936C24.9994 10.1825 23.3514 8.91308 20.9734 8.8928ZM22.2492 12.9793C24.3037 12.9793 25.5368 14.401 25.5368 16.8192L25.5416 19.289C25.5416 20.9189 24.5231 22.8257 22.2492 22.8257C18.7534 22.8257 18.8468 19.081 18.8468 17.8338C18.8468 13.6384 20.7094 12.9793 22.2492 12.9793ZM32.839 17.882C32.839 15.7804 32.7376 8.90405 41.7682 8.90405C45.3932 8.90405 46.9069 10.0475 46.9069 10.0475L45.6903 13.791C45.6903 13.791 44.1785 12.9652 42.2087 12.9652C39.6858 12.9652 38.0759 14.4161 38.0759 16.969L38.0787 18.7996C38.0787 21.2527 39.632 22.8902 42.2139 22.8902C44.0084 22.8902 45.6624 22.0566 45.6624 22.0566L46.8759 25.7218C46.8759 25.7218 45.4919 26.8725 41.7935 26.8725C33.195 26.8725 32.8391 20.7031 32.8391 17.882H32.839ZM76.3269 8.89752C81.2186 8.89752 83.4919 12.5478 83.4919 17.7295C83.4919 24.257 80.5888 26.8695 76.3239 26.8695C73.8839 26.8695 72.0801 25.8507 71.1057 23.9492V26.5281L66.1513 26.5261V0.585159L71.4116 0.130021V11.6593C72.1708 9.64224 74.6658 8.89752 76.3269 8.89752ZM74.8521 12.9793C72.7976 12.9793 71.4116 14.401 71.4116 16.8192L71.4067 19.289C71.4036 20.9189 72.3666 22.8257 74.8521 22.8257C78.3479 22.8257 78.2545 19.081 78.2545 17.8338C78.2545 13.6384 76.3921 12.9793 74.8521 12.9793ZM56.034 8.91183C50.4858 8.91183 47.5567 11.9128 47.5567 17.2459V18.2367C47.5567 25.1585 51.6701 26.9406 56.574 26.9406C61.3406 26.9406 63.4981 25.6179 63.4981 25.6179L62.5138 22.0957C62.5138 22.0957 59.9759 23.167 57.2047 23.167C54.3319 23.167 53.0964 22.4406 52.7797 19.7017H63.9187V16.876C63.9187 11.091 60.6313 8.91169 56.0339 8.91169L56.034 8.91183ZM56.1677 12.4388C58.0882 12.4388 59.3327 13.6071 59.2644 16.3167H52.7894C52.9017 13.4649 54.2437 12.4388 56.1677 12.4388ZM93.9809 8.88808C88.2833 8.88808 85.2838 12.0734 85.2838 17.7815C85.2838 25.6135 90.4543 26.8742 93.9904 26.8742C99.167 26.8742 102.611 24.1093 102.611 17.8527C102.611 11.3406 98.7386 8.88808 93.9809 8.88808ZM93.9092 12.9935C96.4145 12.9935 97.4072 14.8536 97.4072 16.971V18.7914C97.4072 21.3564 96.0182 22.84 93.8997 22.84C91.9184 22.84 90.526 21.4522 90.526 18.7914V16.971C90.526 14.1332 92.1829 12.9935 93.9092 12.9935ZM113.091 8.88808C107.393 8.88808 104.394 12.0734 104.394 17.7815C104.394 25.6135 109.564 26.8742 113.1 26.8742C118.277 26.8742 121.721 24.1093 121.721 17.8527C121.721 11.3406 117.848 8.88808 113.091 8.88808ZM113.019 12.9935C115.524 12.9935 116.517 14.8536 116.517 16.971V18.7914C116.517 21.3564 115.128 22.84 113.009 22.84C111.028 22.84 109.636 21.4522 109.636 18.7914V16.971C109.636 14.1332 111.293 12.9935 113.019 12.9935ZM123.709 26.5263V0.585159L128.984 0.130021V17.5174L134.218 9.23224H139.79L134.33 17.8132L140 26.5263H134.413L128.984 18.066V26.5263H123.709Z" fill="#1877F2"/>
</g>
<defs>
<clipPath id="clip0_147_1503">
<rect width="140" height="27" fill="white"/>
</clipPath>
</defs>
</svg>
